<svg width="68" height="68" viewBox="0 0 68 68" fill="none" xmlns="http://www.w3.org/2000/svg">
<g filter="url(#filter0_dd_5244_106356)">
<rect x="12" y="4" width="52" height="52" rx="6" fill="#B9F6CA"/>
<path d="M37.5816 40.4534C37.6301 40.8747 37.3279 41.2583 36.9042 41.2798C34.6401 41.3949 32.3838 40.8662 30.4 39.7474C28.1928 38.5024 26.4363 36.5906 25.3824 34.286C24.3284 31.9815 24.0311 29.4024 24.533 26.9184C25.035 24.4345 26.3104 22.1732 28.1765 20.4587C30.0426 18.7442 32.4036 17.6644 34.9211 17.3742C37.4386 17.084 39.9833 17.5982 42.1906 18.8432C44.3978 20.0881 46.1543 21.9999 47.2082 24.3045C48.1555 26.3757 48.4915 28.6686 48.1855 30.9149C48.1282 31.3352 47.7205 31.604 47.3048 31.52C46.889 31.436 46.6231 31.0309 46.6764 30.6102C46.9205 28.6826 46.6237 26.7195 45.8114 24.9433C44.8923 22.9337 43.3607 21.2667 41.436 20.1811C39.5112 19.0955 37.2922 18.6471 35.097 18.9001C32.9017 19.1532 30.843 20.0947 29.2157 21.5898C27.5885 23.0848 26.4763 25.0567 26.0386 27.2227C25.6009 29.3887 25.8602 31.6376 26.7792 33.6472C27.6983 35.6568 29.2299 37.3239 31.1546 38.4095C32.8558 39.369 34.7868 39.8307 36.7281 39.7503C37.1519 39.7328 37.533 40.032 37.5816 40.4534Z" fill="#00C853"/>
<path d="M48.7739 40.1086H41.7597C41.6082 40.1084 41.4737 40.0117 41.4258 39.8682L39.3133 33.5424C39.2776 33.4354 39.2956 33.3177 39.3618 33.226C39.4278 33.1344 39.534 33.0801 39.6472 33.08H49.9699L50.4318 31.2378C50.4709 31.0813 51.4565 30.9714 51.618 30.9714H51.7068C51.9013 30.9714 52.059 31.1288 52.059 31.3229C52.059 31.5169 51.3242 31.6743 51.1297 31.6743H51.743L49.9711 39.6883C50.3159 39.907 50.5485 40.2642 50.6088 40.6675C50.669 41.0707 50.5509 41.4802 50.285 41.7898C50.0192 42.0992 49.5619 42.3516 49.1536 42.3537H41.7392C41.5447 42.3537 40.8945 41.7046 40.8945 41.5106C40.8945 41.3164 41.5652 41.275 41.7597 41.275H48.7739C49.0255 41.275 49.2159 41.3065 49.3417 41.089C49.4675 40.8716 49.4667 40.6775 49.3409 40.4601C49.2151 40.2426 49.0255 40.1086 48.7739 40.1086ZM49.0101 38.8777L49.9699 34.0168H40.5641L42.2259 38.8777H49.0101Z" fill="#00C853"/>
<path d="M47.3092 35.1888C47.5037 35.1888 47.6613 35.3462 47.6613 35.5403V37.6489C47.6613 37.8429 47.5037 38.0002 47.3092 38.0002C47.1148 38.0002 46.9572 37.8429 46.9572 37.6489V35.5403C46.9572 35.4471 46.9942 35.3577 47.0602 35.2918C47.1263 35.2259 47.2158 35.1888 47.3092 35.1888H47.3092Z" fill="#00C853"/>
<path d="M45.5507 35.1888C45.7451 35.1888 45.9028 35.3462 45.9028 35.5403V37.6489C45.9028 37.8429 45.7451 38.0002 45.5507 38.0002C45.3563 38.0002 45.1986 37.8429 45.1986 37.6489V35.5403C45.1986 35.4471 45.2357 35.3577 45.3017 35.2918C45.3677 35.2259 45.4573 35.1888 45.5507 35.1888Z" fill="#00C853"/>
<path d="M43.7908 38.0002C43.6974 38.0002 43.6079 37.9633 43.5418 37.8974C43.4758 37.8314 43.4387 37.7421 43.4387 37.6489V35.5403C43.4387 35.3462 43.5963 35.1888 43.7908 35.1888C43.9852 35.1888 44.1428 35.3462 44.1428 35.5403V37.6489C44.1428 37.7421 44.1058 37.8314 44.0398 37.8974C43.9737 37.9633 43.8842 38.0002 43.7908 38.0002H43.7908Z" fill="#00C853"/>
<path d="M41.6145 23.2004C41.1812 22.8758 40.5528 22.9539 40.2181 23.374L34.3466 31.4892L31.7861 28.2304C31.4542 27.8079 30.8265 27.7259 30.391 28.0477C29.9554 28.3695 29.8709 28.9785 30.2026 29.401L33.5212 33.625C33.7463 33.9117 34.1077 34.0374 34.4532 33.9904C34.724 33.9697 34.9853 33.8462 35.1632 33.6228L41.7933 24.555C42.1281 24.1347 42.0474 23.5251 41.6145 23.2004Z" fill="#00C853"/>
</g>
<defs>
<filter id="filter0_dd_5244_106356" x="0" y="0" width="68" height="68" filterUnits="userSpaceOnUse" color-interpolation-filters="sRGB">
<feFlood flood-opacity="0" result="BackgroundImageFix"/>
<feColorMatrix in="SourceAlpha" type="matrix" values="0 0 0 0 0 0 0 0 0 0 0 0 0 0 0 0 0 0 127 0" result="hardAlpha"/>
<feOffset dx="-4" dy="4"/>
<feGaussianBlur stdDeviation="4"/>
<feColorMatrix type="matrix" values="0 0 0 0 0 0 0 0 0 0 0 0 0 0 0 0 0 0 0.06 0"/>
<feBlend mode="normal" in2="BackgroundImageFix" result="effect1_dropShadow_5244_106356"/>
<feColorMatrix in="SourceAlpha" type="matrix" values="0 0 0 0 0 0 0 0 0 0 0 0 0 0 0 0 0 0 127 0" result="hardAlpha"/>
<feOffset/>
<feGaussianBlur stdDeviation="2"/>
<feColorMatrix type="matrix" values="0 0 0 0 0 0 0 0 0 0 0 0 0 0 0 0 0 0 0.04 0"/>
<feBlend mode="normal" in2="effect1_dropShadow_5244_106356" result="effect2_dropShadow_5244_106356"/>
<feBlend mode="normal" in="SourceGraphic" in2="effect2_dropShadow_5244_106356" result="shape"/>
</filter>
</defs>
</svg>
