<svg width="20" height="20" viewBox="0 0 20 20" fill="none" xmlns="http://www.w3.org/2000/svg">
<path d="M4.57143 8.39286C3.82821 8.39286 3.31015 8.39241 2.90513 8.36347C2.50729 8.33505 2.2763 8.28194 2.10024 8.20512C1.57997 7.97813 1.16473 7.56288 0.937735 7.04261C0.860921 6.86655 0.807806 6.63556 0.779382 6.23773C0.750445 5.83271 0.75 5.31465 0.75 4.57143C0.75 3.82821 0.750445 3.31015 0.779382 2.90513C0.807806 2.50729 0.860921 2.2763 0.937735 2.10024C1.16473 1.57997 1.57997 1.16473 2.10024 0.937735C2.2763 0.860921 2.50729 0.807806 2.90513 0.779382C3.31015 0.750445 3.82821 0.75 4.57143 0.75C5.31465 0.75 5.83271 0.750445 6.23773 0.779382C6.63556 0.807806 6.86655 0.860921 7.04261 0.937735C7.56288 1.16473 7.97813 1.57997 8.20512 2.10024C8.28194 2.2763 8.33505 2.50729 8.36347 2.90513C8.39241 3.31015 8.39286 3.82821 8.39286 4.57143C8.39286 5.31465 8.39241 5.83271 8.36347 6.23773C8.33505 6.63556 8.28194 6.86655 8.20512 7.04261C7.97813 7.56288 7.56288 7.97813 7.04261 8.20512C6.86655 8.28194 6.63556 8.33505 6.23773 8.36347C5.83271 8.39241 5.31465 8.39286 4.57143 8.39286Z" stroke="#999999" stroke-width="1.5"/>
<path d="M4.57143 19.2503C3.82821 19.2503 3.31015 19.2498 2.90513 19.2209C2.50729 19.1925 2.2763 19.1394 2.10024 19.0625C1.57997 18.8356 1.16473 18.4203 0.937735 17.9C0.860921 17.724 0.807806 17.493 0.779382 17.0952C0.750445 16.6901 0.75 16.1721 0.75 15.4289C0.75 14.6856 0.750445 14.1676 0.779382 13.7625C0.807806 13.3647 0.860921 13.1337 0.937735 12.9577C1.16473 12.4374 1.57997 12.0221 2.10024 11.7952C2.2763 11.7183 2.50729 11.6652 2.90513 11.6368C3.31015 11.6079 3.82821 11.6074 4.57143 11.6074C5.31465 11.6074 5.83271 11.6079 6.23773 11.6368C6.63556 11.6652 6.86655 11.7183 7.04261 11.7952C7.56288 12.0221 7.97813 12.4374 8.20512 12.9577C8.28194 13.1337 8.33505 13.3647 8.36347 13.7625C8.39241 14.1676 8.39286 14.6856 8.39286 15.4289C8.39286 16.1721 8.39241 16.6901 8.36347 17.0952C8.33505 17.493 8.28194 17.724 8.20512 17.9C7.97813 18.4203 7.56288 18.8356 7.04261 19.0625C6.86655 19.1394 6.63556 19.1925 6.23773 19.2209C5.83271 19.2498 5.31465 19.2503 4.57143 19.2503Z" stroke="#999999" stroke-width="1.5"/>
<path d="M15.4286 8.39286C14.6854 8.39286 14.1673 8.39241 13.7623 8.36347C13.3645 8.33505 13.1335 8.28194 12.9574 8.20512C12.4372 7.97813 12.0219 7.56288 11.7949 7.04261C11.7181 6.86655 11.665 6.63556 11.6366 6.23773C11.6076 5.83271 11.6072 5.31465 11.6072 4.57143C11.6072 3.82821 11.6076 3.31015 11.6366 2.90513C11.665 2.50729 11.7181 2.2763 11.7949 2.10024C12.0219 1.57997 12.4372 1.16473 12.9574 0.937735C13.1335 0.860921 13.3645 0.807806 13.7623 0.779382C14.1673 0.750445 14.6854 0.75 15.4286 0.75C16.1718 0.75 16.6899 0.750445 17.0949 0.779382C17.4927 0.807806 17.7237 0.860921 17.8998 0.937735C18.4201 1.16473 18.8353 1.57997 19.0623 2.10024C19.1391 2.2763 19.1922 2.50729 19.2207 2.90513C19.2496 3.31015 19.25 3.82821 19.25 4.57143C19.25 5.31465 19.2496 5.83271 19.2207 6.23773C19.1922 6.63556 19.1391 6.86655 19.0623 7.04261C18.8353 7.56288 18.4201 7.97813 17.8998 8.20512C17.7237 8.28194 17.4927 8.33505 17.0949 8.36347C16.6899 8.39241 16.1718 8.39286 15.4286 8.39286Z" stroke="#999999" stroke-width="1.5"/>
<path d="M15.4286 19.2503C14.6854 19.2503 14.1673 19.2498 13.7623 19.2209C13.3645 19.1925 13.1335 19.1394 12.9574 19.0625C12.4372 18.8356 12.0219 18.4203 11.7949 17.9C11.7181 17.724 11.665 17.493 11.6366 17.0952C11.6076 16.6901 11.6072 16.1721 11.6072 15.4289C11.6072 14.6856 11.6076 14.1676 11.6366 13.7625C11.665 13.3647 11.7181 13.1337 11.7949 12.9577C12.0219 12.4374 12.4372 12.0221 12.9574 11.7952C13.1335 11.7183 13.3645 11.6652 13.7623 11.6368C14.1673 11.6079 14.6854 11.6074 15.4286 11.6074C16.1718 11.6074 16.6899 11.6079 17.0949 11.6368C17.4927 11.6652 17.7237 11.7183 17.8998 11.7952C18.4201 12.0221 18.8353 12.4374 19.0623 12.9577C19.1391 13.1337 19.1922 13.3647 19.2207 13.7625C19.2496 14.1676 19.25 14.6856 19.25 15.4289C19.25 16.1721 19.2496 16.6901 19.2207 17.0952C19.1922 17.493 19.1391 17.724 19.0623 17.9C18.8353 18.4203 18.4201 18.8356 17.8998 19.0625C17.7237 19.1394 17.4927 19.1925 17.0949 19.2209C16.6899 19.2498 16.1718 19.2503 15.4286 19.2503Z" stroke="#999999" stroke-width="1.5"/>
</svg>
