<svg width="46" height="46" viewBox="0 0 46 46" fill="none" xmlns="http://www.w3.org/2000/svg">
    <g filter="url(#d05gxqen8a)">
        <path d="M13 17.571c0-1.465 0-2.197.25-2.77a3 3 0 0 1 1.55-1.55C15.374 13 16.106 13 17.571 13c1.465 0 2.198 0 2.771.25a3 3 0 0 1 1.55 1.55c.25.574.25 1.306.25 2.771 0 1.465 0 2.198-.25 2.771a3 3 0 0 1-1.55 1.55c-.573.25-1.306.25-2.77.25-1.465 0-2.198 0-2.772-.25a3 3 0 0 1-1.55-1.55c-.25-.573-.25-1.306-.25-2.77zM13 28.429c0-1.465 0-2.197.25-2.771a3 3 0 0 1 1.55-1.55c.574-.25 1.306-.25 2.771-.25 1.465 0 2.198 0 2.771.25a3 3 0 0 1 1.55 1.55c.25.573.25 1.306.25 2.77 0 1.466 0 2.198-.25 2.772a3 3 0 0 1-1.55 1.55c-.573.25-1.306.25-2.77.25-1.465 0-2.198 0-2.772-.25a3 3 0 0 1-1.55-1.55c-.25-.574-.25-1.306-.25-2.771z" fill="#2478BE"/>
        <path d="M23.857 17.571c0-1.465 0-2.197.25-2.77a3 3 0 0 1 1.55-1.55C26.233 13 26.965 13 28.43 13c1.465 0 2.197 0 2.771.25a3 3 0 0 1 1.55 1.55c.25.574.25 1.306.25 2.771 0 1.465 0 2.198-.25 2.771a3 3 0 0 1-1.55 1.55c-.574.25-1.306.25-2.771.25-1.465 0-2.197 0-2.771-.25a3 3 0 0 1-1.55-1.55c-.25-.573-.25-1.306-.25-2.77z" fill="#A7C9E5"/>
        <path d="M23.857 28.429c0-1.465 0-2.197.25-2.771a3 3 0 0 1 1.55-1.55c.575-.25 1.307-.25 2.772-.25 1.465 0 2.197 0 2.771.25a3 3 0 0 1 1.55 1.55c.25.573.25 1.306.25 2.77 0 1.466 0 2.198-.25 2.772a3 3 0 0 1-1.55 1.55c-.574.25-1.306.25-2.771.25-1.465 0-2.197 0-2.771-.25a3 3 0 0 1-1.55-1.55c-.25-.574-.25-1.306-.25-2.771z" fill="#2478BE"/>
    </g>
    <defs>
        <filter id="d05gxqen8a" x="-1.176" y="-1.176" width="48.352" height="48.352" filterUnits="userSpaceOnUse" color-interpolation-filters="sRGB">
            <feFlood flood-opacity="0" result="BackgroundImageFix"/>
            <feColorMatrix in="SourceAlpha" values="0 0 0 0 0 0 0 0 0 0 0 0 0 0 0 0 0 0 127 0" result="hardAlpha"/>
            <feOffset/>
            <feGaussianBlur stdDeviation="6.088"/>
            <feComposite in2="hardAlpha" operator="out"/>
            <feColorMatrix values="0 0 0 0 1 0 0 0 0 1 0 0 0 0 1 0 0 0 1 0"/>
            <feBlend mode="overlay" in2="BackgroundImageFix" result="effect1_dropShadow_5369_110481"/>
            <feBlend in="SourceGraphic" in2="effect1_dropShadow_5369_110481" result="shape"/>
        </filter>
    </defs>
</svg>
