<svg width="800" height="800" viewBox="0 0 800 800" fill="none" xmlns="http://www.w3.org/2000/svg">
<g clip-path="url(#clip0_51_7806)">
<path d="M400 148.387C378.064 148.387 361.29 131.613 361.29 109.677V38.7097C361.29 16.7742 378.064 0 400 0C421.935 0 438.71 16.7742 438.71 38.7097V109.677C438.71 130.323 421.935 148.387 400 148.387Z" fill="#BBE0FF"/>
<path d="M400 800C378.064 800 361.29 783.226 361.29 761.291V690.323C361.29 668.387 378.064 651.613 400 651.613C421.935 651.613 438.71 668.387 438.71 690.323V761.291C438.71 783.226 421.935 800 400 800Z" fill="#5297D1"/>
<path d="M254.193 187.097C241.29 187.097 228.387 180.646 220.645 167.742L185.806 107.097C175.484 89.0327 181.935 64.5166 200 54.194C218.064 43.8714 242.581 50.323 252.903 68.3876L287.742 129.033C298.064 147.097 291.613 171.613 273.548 181.936C268.387 184.517 260.645 187.097 254.193 187.097Z" fill="#C6E5FF"/>
<path d="M580.645 750.968C567.742 750.968 554.839 744.517 547.097 731.613L512.258 670.968C501.935 652.904 508.387 628.388 526.452 618.065C544.516 607.743 569.032 614.194 579.355 632.259L614.193 692.904C624.516 710.968 618.064 735.484 600 745.807C593.548 749.678 587.097 750.968 580.645 750.968Z" fill="#64B0F0"/>
<path d="M148.387 292.904C141.935 292.904 135.484 291.614 129.032 287.743L68.3871 252.904C50.3226 242.581 43.8709 218.065 54.1935 200.001C64.5161 181.936 89.0322 175.485 107.097 185.807L167.742 220.646C185.806 230.969 192.258 255.485 181.935 273.549C174.194 286.452 161.29 292.904 148.387 292.904Z" fill="#D6ECFF"/>
<path d="M713.548 619.355C707.097 619.355 700.645 618.065 694.194 614.194L632.258 579.355C614.194 569.033 607.742 544.517 618.065 526.452C628.387 508.387 652.903 501.936 670.968 512.258L731.613 547.097C749.678 557.42 756.129 581.936 745.807 600C739.355 612.904 726.452 619.355 713.548 619.355Z" fill="#73B9F3"/>
<path d="M109.677 438.71H38.7097C16.7742 438.71 0 421.936 0 400.001C0 378.065 16.7742 361.291 38.7097 361.291H109.677C131.613 361.291 148.387 378.065 148.387 400.001C148.387 421.936 130.323 438.71 109.677 438.71Z" fill="#E6F3FF"/>
<path d="M761.29 438.71H690.322C668.387 438.71 651.613 421.936 651.613 400.001C651.613 378.065 668.387 361.291 690.322 361.291H761.29C783.226 361.291 800 378.065 800 400.001C800 421.936 783.226 438.71 761.29 438.71Z" fill="#88C8FE"/>
<path d="M86.4516 619.355C73.5484 619.355 60.6452 612.904 52.9032 600C42.5807 581.936 49.0323 557.42 67.0968 547.097L127.742 512.258C145.806 501.936 170.323 508.387 180.645 526.452C190.968 544.517 184.516 569.033 166.452 579.355L105.806 614.194C100.645 618.065 94.1936 619.355 86.4516 619.355Z" fill="#2478BE"/>
<path d="M651.613 292.904C638.71 292.904 625.807 286.452 618.065 273.549C607.742 255.485 614.194 230.969 632.258 220.646L692.903 185.807C710.968 175.485 735.484 181.936 745.807 200.001C756.129 218.065 749.678 242.581 731.613 252.904L670.968 287.743C664.516 291.614 658.065 292.904 651.613 292.904Z" fill="#98D0FF"/>
<path d="M219.355 750.968C212.903 750.968 206.451 749.678 200 745.807C181.935 735.484 175.484 710.968 185.806 692.904L220.645 632.259C230.968 614.194 255.484 607.743 273.548 618.065C291.613 628.388 298.064 652.904 287.742 670.968L252.903 731.613C245.161 744.517 232.258 750.968 219.355 750.968Z" fill="#3586C9"/>
<path d="M545.806 187.097C539.355 187.097 532.903 185.807 526.452 181.936C508.387 171.613 501.935 147.097 512.258 129.033L547.097 68.3876C557.419 50.323 581.935 43.8714 600 54.194C618.064 64.5166 624.516 89.0327 614.193 107.097L579.355 167.742C571.613 179.355 558.71 187.097 545.806 187.097Z" fill="#ACD9FF"/>
</g>
<defs>
<clipPath id="clip0_51_7806">
<rect width="800" height="800" fill="white"/>
</clipPath>
</defs>
</svg>
