<svg width="68" height="68" viewBox="0 0 68 68" fill="none" xmlns="http://www.w3.org/2000/svg">
<g filter="url(#filter0_dd_5244_106361)">
<rect x="12" y="4" width="52" height="52" rx="6" fill="#FBE9E7"/>
<path fill-rule="evenodd" clip-rule="evenodd" d="M35.5817 15.0001L33.8605 15.4328L35.5116 23.061H29.5238C29.3553 23.0612 29.1972 23.1338 29.0989 23.2565C29.0005 23.3792 28.9736 23.5367 29.0268 23.6801L32.1715 32.1487C32.2428 32.3409 32.443 32.4704 32.6685 32.4705H37.5482L37.8862 34.0322H32.6685C32.3789 34.0322 31.3806 34.0876 31.3806 34.3475C31.3806 34.6072 32.3485 35.4762 32.6381 35.4762H38.1988L40.184 44.6485L41.9053 44.2158L35.5817 15.0001ZM37.2801 31.2317L35.834 24.5509L31.1241 24.5495L33.6294 31.2317H37.2801ZM43.3009 31.2317H40.0226L40.2907 32.4705H43.1099C43.4844 32.4705 43.7667 32.65 43.9539 32.9411C44.1412 33.2322 44.1423 33.492 43.9551 33.7831C43.7894 34.0406 43.5485 34.0374 43.2358 34.0333L43.2352 34.0333C43.1946 34.0327 43.1529 34.0322 43.1099 34.0322H40.6287L40.9413 35.4762H43.675C44.2829 35.4734 44.9636 35.1355 45.3593 34.7212C45.7551 34.3068 45.9309 33.7586 45.8412 33.2187C45.7516 32.6789 45.4053 32.2006 44.892 31.908L47.4972 21.179H47.1078C47.3974 21.179 48 20.9684 48 20.7087C48 20.4488 47.7654 20.2381 47.4758 20.2381H47.3436C47.1032 20.2381 45.6361 20.3853 45.5778 20.5948L44.8902 23.061H38.2541L38.5767 24.5517L44.7888 24.5535L43.3009 31.2317Z" fill="#FE8C68"/>
<path d="M42.0491 25.558C42.2896 25.6032 42.4462 25.8761 42.399 26.1677L41.8862 29.3342C41.839 29.6255 41.6059 29.8251 41.3654 29.7799C41.1251 29.7347 40.9685 29.4618 41.0156 29.1704L41.5285 26.0039C41.5511 25.864 41.6186 25.7383 41.7163 25.6547C41.8141 25.5711 41.9337 25.5363 42.0491 25.558L42.0491 25.558Z" fill="#FE8C68"/>
<path d="M34.2849 25.6076C34.5196 25.535 34.7711 25.7067 34.8469 25.9912L35.6696 29.0808C35.7453 29.3651 35.6166 29.6544 35.3819 29.727C35.1474 29.7995 34.8959 29.6278 34.8202 29.3435L33.9974 26.2539C33.9611 26.1174 33.9708 25.9725 34.0248 25.8513C34.0788 25.7301 34.1723 25.6424 34.2849 25.6076L34.2849 25.6076Z" fill="#FE8C68"/>
</g>
<defs>
<filter id="filter0_dd_5244_106361" x="0" y="0" width="68" height="68" filterUnits="userSpaceOnUse" color-interpolation-filters="sRGB">
<feFlood flood-opacity="0" result="BackgroundImageFix"/>
<feColorMatrix in="SourceAlpha" type="matrix" values="0 0 0 0 0 0 0 0 0 0 0 0 0 0 0 0 0 0 127 0" result="hardAlpha"/>
<feOffset dx="-4" dy="4"/>
<feGaussianBlur stdDeviation="4"/>
<feColorMatrix type="matrix" values="0 0 0 0 0 0 0 0 0 0 0 0 0 0 0 0 0 0 0.06 0"/>
<feBlend mode="normal" in2="BackgroundImageFix" result="effect1_dropShadow_5244_106361"/>
<feColorMatrix in="SourceAlpha" type="matrix" values="0 0 0 0 0 0 0 0 0 0 0 0 0 0 0 0 0 0 127 0" result="hardAlpha"/>
<feOffset/>
<feGaussianBlur stdDeviation="2"/>
<feColorMatrix type="matrix" values="0 0 0 0 0 0 0 0 0 0 0 0 0 0 0 0 0 0 0.04 0"/>
<feBlend mode="normal" in2="effect1_dropShadow_5244_106361" result="effect2_dropShadow_5244_106361"/>
<feBlend mode="normal" in="SourceGraphic" in2="effect2_dropShadow_5244_106361" result="shape"/>
</filter>
</defs>
</svg>
