<svg width="68" height="68" viewBox="0 0 68 68" fill="none" xmlns="http://www.w3.org/2000/svg">
<g filter="url(#filter0_dd_5244_106351)">
<rect x="12" y="4" width="52" height="52" rx="6" fill="#DDF1FA"/>
<path d="M36.6844 29.4215H30.9979C30.8751 29.4214 30.766 29.3429 30.7272 29.2263L29.0146 24.0883C28.9856 24.0013 29.0002 23.9057 29.0538 23.8313C29.1074 23.7568 29.1935 23.7128 29.2852 23.7127H37.654L38.0285 22.2164C38.0602 22.0893 38.8593 22 38.9902 22H39.0622C39.2199 22 39.3477 22.1278 39.3477 22.2855C39.3477 22.4431 39.2199 22.5709 39.0622 22.5709H39.2134L37.655 29.0802C37.9346 29.2578 38.1231 29.5479 38.172 29.8755C38.2208 30.203 38.125 30.5356 37.9095 30.787C37.694 31.0384 37.3233 31.2434 36.9922 31.2451H30.9813C30.8236 31.2451 30.2965 30.7179 30.2965 30.5603C30.2965 30.4026 30.8402 30.369 30.9979 30.369H36.6844C36.8884 30.369 37.0427 30.3945 37.1447 30.2179C37.2467 30.0413 37.2461 29.8836 37.1441 29.707C37.0421 29.5304 36.8884 29.4215 36.6844 29.4215ZM36.6844 28.5L37.654 24.7352H30.2965L31.5 28.5H36.6844Z" fill="#2478BE"/>
<path d="M35.4979 25.4254C35.6556 25.4254 35.7834 25.5532 35.7834 25.7109V27.4236C35.7834 27.5812 35.6556 27.7089 35.4979 27.7089C35.3403 27.7089 35.2125 27.5812 35.2125 27.4236V25.7109C35.2125 25.6352 35.2425 25.5626 35.2961 25.509C35.3497 25.4555 35.4222 25.4254 35.4979 25.4254H35.4979Z" fill="#2478BE"/>
<path d="M34.0708 25.4254C34.2284 25.4254 34.3563 25.5532 34.3563 25.7109V27.4236C34.3563 27.5812 34.2284 27.7089 34.0708 27.7089C33.9132 27.7089 33.7854 27.5812 33.7854 27.4236V25.7109C33.7854 25.6352 33.8155 25.5626 33.869 25.509C33.9225 25.4555 33.9952 25.4254 34.0708 25.4254Z" fill="#2478BE"/>
<path d="M32.6439 27.7089C32.5682 27.7089 32.4956 27.6789 32.442 27.6254C32.3885 27.5718 32.3584 27.4993 32.3584 27.4236V25.7109C32.3584 25.5532 32.4862 25.4254 32.6439 25.4254C32.8015 25.4254 32.9293 25.5532 32.9293 25.7109V27.4236C32.9293 27.4993 32.8992 27.5718 32.8457 27.6254C32.7921 27.6789 32.7196 27.7089 32.6439 27.7089H32.6439Z" fill="#2478BE"/>
<path d="M34.2741 36.5425C36.729 36.5425 39.178 35.6587 41.1226 33.9141L42.7809 35.5727C42.3091 36.3954 42.416 37.462 43.1182 38.164L48.324 43.37C48.744 43.79 49.2953 44 49.847 44C50.3987 44 50.95 43.79 51.37 43.37C52.21 42.5302 52.21 41.1637 51.37 40.3241L46.1642 35.1182C45.462 34.416 44.3955 34.3094 43.5729 34.7809L41.9146 33.1224C45.528 29.0935 45.4106 22.8812 41.5387 19.0092C39.5982 17.0685 37.0182 16 34.2737 16C31.5294 16 28.9498 17.0686 27.0094 19.0092C25.0685 20.9497 24 23.5296 24 26.2737C24 29.0181 25.0686 31.598 27.0094 33.5388C29.0122 35.5414 31.6426 36.5427 34.2737 36.5427L34.2741 36.5425ZM45.3725 35.9099L50.5783 41.1159C50.9815 41.519 50.9815 42.175 50.5783 42.5779C50.1747 42.9811 49.5196 42.9811 49.116 42.5779L43.9102 37.372C43.5071 36.9689 43.5071 36.3129 43.9102 35.9099C44.112 35.7084 44.3766 35.6076 44.6415 35.6076C44.9059 35.6073 45.1705 35.7084 45.3726 35.9099H45.3725ZM27.8018 19.8005C29.5306 18.0715 31.8291 17.1194 34.2741 17.1194C36.7191 17.1194 39.0177 18.0714 40.747 19.8005C44.3159 23.3694 44.3159 29.1771 40.747 32.746C37.177 36.315 31.3707 36.3148 27.8018 32.7462C26.0726 31.0172 25.1205 28.7183 25.1205 26.2732C25.1205 23.828 26.0725 21.5295 27.8018 19.8001V19.8005Z" fill="#2478BE"/>
</g>
<defs>
<filter id="filter0_dd_5244_106351" x="0" y="0" width="68" height="68" filterUnits="userSpaceOnUse" color-interpolation-filters="sRGB">
<feFlood flood-opacity="0" result="BackgroundImageFix"/>
<feColorMatrix in="SourceAlpha" type="matrix" values="0 0 0 0 0 0 0 0 0 0 0 0 0 0 0 0 0 0 127 0" result="hardAlpha"/>
<feOffset dx="-4" dy="4"/>
<feGaussianBlur stdDeviation="4"/>
<feColorMatrix type="matrix" values="0 0 0 0 0 0 0 0 0 0 0 0 0 0 0 0 0 0 0.06 0"/>
<feBlend mode="normal" in2="BackgroundImageFix" result="effect1_dropShadow_5244_106351"/>
<feColorMatrix in="SourceAlpha" type="matrix" values="0 0 0 0 0 0 0 0 0 0 0 0 0 0 0 0 0 0 127 0" result="hardAlpha"/>
<feOffset/>
<feGaussianBlur stdDeviation="2"/>
<feColorMatrix type="matrix" values="0 0 0 0 0 0 0 0 0 0 0 0 0 0 0 0 0 0 0.04 0"/>
<feBlend mode="normal" in2="effect1_dropShadow_5244_106351" result="effect2_dropShadow_5244_106351"/>
<feBlend mode="normal" in="SourceGraphic" in2="effect2_dropShadow_5244_106351" result="shape"/>
</filter>
</defs>
</svg>
