<svg width="68" height="68" viewBox="0 0 68 68" fill="none" xmlns="http://www.w3.org/2000/svg">
<g filter="url(#filter0_dd_5244_106346)">
<rect x="12" y="4" width="52" height="52" rx="6" fill="#FFF8E1"/>
<path d="M49.9426 42.5203H41.2792C41.0921 42.5202 40.9259 42.4007 40.8668 42.2234L38.2576 34.4104C38.2135 34.2781 38.2358 34.1328 38.3174 34.0196C38.399 33.9063 38.5302 33.8393 38.67 33.8392H51.4198L51.9903 31.5639C52.0386 31.3706 53.2559 31.2349 53.4554 31.2349H53.5651C53.8053 31.2349 54 31.4292 54 31.669C54 31.9086 53.0925 32.1029 52.8523 32.1029H53.6098L51.4212 42.0013C51.8471 42.2713 52.1344 42.7125 52.2088 43.2106C52.2832 43.7087 52.1373 44.2144 51.809 44.5968C51.4806 44.979 50.9159 45.2907 50.4115 45.2933H41.2539C41.0137 45.2933 40.2106 44.4916 40.2106 44.252C40.2106 44.0122 41.0389 43.961 41.2792 43.961H49.9426C50.2533 43.961 50.4885 43.9999 50.6438 43.7313C50.7992 43.4627 50.7983 43.223 50.6429 42.9544C50.4875 42.6859 50.2533 42.5203 49.9426 42.5203ZM50.2343 41L51.4198 35.5H40L41.7734 41H50.2343Z" fill="#FFC107"/>
<path d="M48.1336 36.444C48.3738 36.444 48.5685 36.6383 48.5685 36.8781V39.4824C48.5685 39.7221 48.3738 39.9164 48.1336 39.9164C47.8935 39.9164 47.6988 39.7221 47.6988 39.4824V36.8781C47.6988 36.763 47.7445 36.6525 47.826 36.5711C47.9077 36.4898 48.0182 36.444 48.1336 36.444H48.1336Z" fill="#FFC107"/>
<path d="M45.9624 36.444C46.2025 36.444 46.3974 36.6383 46.3974 36.8781V39.4824C46.3974 39.7221 46.2025 39.9164 45.9624 39.9164C45.7223 39.9164 45.5275 39.7221 45.5275 39.4824V36.8781C45.5275 36.763 45.5734 36.6525 45.6549 36.5711C45.7365 36.4898 45.8471 36.444 45.9624 36.444Z" fill="#FFC107"/>
<path d="M43.7877 39.9164C43.6724 39.9164 43.5618 39.8707 43.4802 39.7894C43.3987 39.7078 43.3528 39.5975 43.3528 39.4824V36.8781C43.3528 36.6383 43.5475 36.444 43.7877 36.444C44.0278 36.444 44.2225 36.6383 44.2225 36.8781V39.4824C44.2225 39.5975 44.1768 39.7078 44.0952 39.7894C44.0136 39.8707 43.903 39.9164 43.7877 39.9164H43.7877Z" fill="#FFC107"/>
<path fill-rule="evenodd" clip-rule="evenodd" d="M36.5255 28.832C35.9701 28.832 35.521 29.2824 35.521 29.8361C35.521 30.3903 35.9701 30.8405 36.5255 30.8405C37.0785 30.8405 37.5304 30.3901 37.5304 29.8361C37.5304 29.2824 37.0784 28.832 36.5255 28.832ZM32.2284 34.1427C32.3323 34.248 32.4692 34.3003 32.6087 34.3003C32.7457 34.3003 32.8854 34.248 32.9893 34.1427L35.4854 31.637C35.7898 31.8148 36.1448 31.9164 36.5253 31.9164C37.6747 31.9164 38.6079 30.9832 38.6079 29.8362C38.6079 28.8754 37.9534 28.0648 37.063 27.8271V20.6421C37.063 20.3452 36.822 20.1046 36.5251 20.1046C36.2282 20.1046 35.9876 20.3452 35.9876 20.6421V27.8271C35.0995 28.0648 34.4425 28.8759 34.4425 29.8362C34.4425 30.215 34.544 30.5701 34.7216 30.8762L32.2283 33.3821C32.0177 33.5918 32.0177 33.9334 32.2284 34.1427Z" fill="#FFC107"/>
<path d="M36.0642 18.1196C35.857 18.1196 35.6582 18.0377 35.5117 17.8912C35.3649 17.7449 35.2828 17.5465 35.2828 17.3397V15.78C35.2828 15.3491 35.6328 15 36.0642 15C36.4957 15 36.8457 15.3491 36.8457 15.78V17.3397C36.8457 17.5465 36.7635 17.7449 36.6168 17.8912C36.4703 18.0377 36.2715 18.1196 36.0642 18.1196ZM36.8457 42.2965V40.7365C36.8457 40.3059 36.4957 39.9565 36.0642 39.9565C35.6328 39.9565 35.2828 40.3059 35.2828 40.7365V42.2962C35.2828 42.7271 35.6328 43.0762 36.0642 43.0762C36.4957 43.0762 36.8457 42.7273 36.8457 42.2965ZM30.5946 19.5829C30.7744 19.4795 30.9052 19.309 30.9591 19.1093C31.0127 18.9095 30.9844 18.6964 30.8808 18.5173L30.0994 17.1662C29.8838 16.7931 29.4059 16.6654 29.0319 16.8806C28.6581 17.096 28.5299 17.573 28.7457 17.9462L29.5272 19.2973C29.743 19.6701 30.2207 19.7981 30.5946 19.5829ZM26.5909 23.5791C26.6945 23.4 26.7225 23.1872 26.6689 22.9874C26.6153 22.7874 26.4842 22.6171 26.3047 22.5137L24.9511 21.7337C24.5773 21.5183 24.0993 21.6463 23.8835 22.0194C23.6679 22.3925 23.7958 22.8696 24.1697 23.0848L25.5233 23.8648C25.8971 24.08 26.3749 23.9522 26.5909 23.5791ZM25.1255 29.0386C25.1255 28.8317 25.0434 28.6333 24.8966 28.4871C24.7501 28.3406 24.5513 28.2586 24.3441 28.2586H22.7815C22.3498 28.2586 22 28.608 22 29.0386C22 29.4691 22.3498 29.8185 22.7815 29.8185H24.3441C24.5513 29.8185 24.7501 29.7365 24.8966 29.5901C25.0434 29.4438 25.1255 29.2454 25.1255 29.0386ZM50.1289 29.0386C50.1289 28.8317 50.0467 28.6333 49.9002 28.4871C49.7537 28.3406 49.5549 28.2586 49.3474 28.2586H47.7848C47.3534 28.2586 47.0034 28.608 47.0034 29.0386C47.0034 29.4691 47.3534 29.8185 47.7848 29.8185H49.3474C49.5549 29.8185 49.7537 29.7365 49.9002 29.5901C50.0467 29.4438 50.1289 29.2454 50.1289 29.0386ZM24.9514 36.343L26.305 35.563C26.6789 35.3476 26.8068 34.8706 26.5912 34.4976C26.3754 34.1245 25.8974 33.9965 25.5236 34.2119L24.17 34.9919C23.9905 35.0953 23.8594 35.2656 23.8058 35.4653C23.7522 35.6651 23.7802 35.8782 23.8838 36.0573C24.0996 36.4305 24.5776 36.5584 24.9514 36.343ZM46.6054 23.8645L47.959 23.0846C48.3329 22.8694 48.4611 22.3924 48.2452 22.0191C48.0294 21.6459 47.5514 21.518 47.1776 21.7335L45.824 22.5135C45.6445 22.6169 45.5134 22.7871 45.4598 22.9871C45.4062 23.1869 45.4342 23.3997 45.5378 23.5788C45.7536 23.952 46.2316 24.08 46.6054 23.8645ZM30.0997 40.91L30.8811 39.559C31.097 39.1858 30.9688 38.7087 30.5949 38.4934C30.2213 38.2782 29.7434 38.4059 29.5275 38.779L28.7461 40.1301C28.5302 40.5032 28.6584 40.9803 29.0323 41.1957C29.4061 41.4111 29.8841 41.2832 30.0997 40.91ZM42.6017 19.2968L43.3832 17.9458C43.599 17.5726 43.4708 17.0955 43.0969 16.8802C42.7231 16.6648 42.2451 16.7927 42.0295 17.1658L41.2481 18.5169C41.0322 18.89 41.1604 19.3671 41.5343 19.5825C41.9079 19.7977 42.3858 19.67 42.6017 19.2968Z" fill="#FFC107"/>
</g>
<defs>
<filter id="filter0_dd_5244_106346" x="0" y="0" width="68" height="68" filterUnits="userSpaceOnUse" color-interpolation-filters="sRGB">
<feFlood flood-opacity="0" result="BackgroundImageFix"/>
<feColorMatrix in="SourceAlpha" type="matrix" values="0 0 0 0 0 0 0 0 0 0 0 0 0 0 0 0 0 0 127 0" result="hardAlpha"/>
<feOffset dx="-4" dy="4"/>
<feGaussianBlur stdDeviation="4"/>
<feColorMatrix type="matrix" values="0 0 0 0 0 0 0 0 0 0 0 0 0 0 0 0 0 0 0.06 0"/>
<feBlend mode="normal" in2="BackgroundImageFix" result="effect1_dropShadow_5244_106346"/>
<feColorMatrix in="SourceAlpha" type="matrix" values="0 0 0 0 0 0 0 0 0 0 0 0 0 0 0 0 0 0 127 0" result="hardAlpha"/>
<feOffset/>
<feGaussianBlur stdDeviation="2"/>
<feColorMatrix type="matrix" values="0 0 0 0 0 0 0 0 0 0 0 0 0 0 0 0 0 0 0.04 0"/>
<feBlend mode="normal" in2="effect1_dropShadow_5244_106346" result="effect2_dropShadow_5244_106346"/>
<feBlend mode="normal" in="SourceGraphic" in2="effect2_dropShadow_5244_106346" result="shape"/>
</filter>
</defs>
</svg>
